<?xml version="1.0" encoding="utf-8"?>
<!-- Generator: Adobe Illustrator 27.4.0, SVG Export Plug-In . SVG Version: 6.00 Build 0)  -->
<svg version="1.1" id="Warstwa_1" xmlns="http://www.w3.org/2000/svg" xmlns:xlink="http://www.w3.org/1999/xlink" x="0px" y="0px"
	 viewBox="0 0 1400 400" style="enable-background:new 0 0 1400 400;" xml:space="preserve">
<style type="text/css">
	.st0{fill:#DEE2E6;}
	.st1{font-family:'Verdana';}
	.st2{font-size:395.7553px;}
	.st3{fill:#2596BB;}
	.st4{fill:#72C1E7;}
	.st5{fill:#0088BF;}
</style>
<text transform="matrix(1 0 0 1 350.7637 309.9404)" class="st0 st1 st2">apiss</text>
<path class="st3" d="M82.9,74.9c6.2,1.3,13.7,3.3,21.9,6.6c16.3,6.7,20.2,12.4,36.5,17.9c7.4,2.5,13.6,4.6,22.3,4.6
	c12.1,0,21.4-4.1,30.8-8.3c13.9-6.2,13.1-8.9,24-12.9c5.3-1.9,16.9-6,30.6-4.2c9.2,1.2,12.1,4.1,32.4,12.9
	c9.6,4.2,17.6,7.2,22.9,9.2c0.1,7.1,0.2,14.3,0.4,21.4c-3.7-0.6-9.1-1.8-15.5-3.9c-9.5-3.2-12.8-5.8-22.1-9.8
	c-9.8-4.2-16.2-6.9-24.7-7.7c-12.8-1.3-23.1,2.3-29.3,4.6c-13,4.7-12.2,8.2-25.8,13.8c-7.3,3-18.5,7.7-32.5,6.6
	c-11.6-0.9-20.4-5.5-27.1-9c-12.8-6.7-16.5-12.4-29.1-16.4c-6.3-2-11.8-2.6-15.3-2.8C83.1,90,83,82.4,82.9,74.9z"/>
<path class="st3" d="M82.9,114.9c6.2,1.3,13.7,3.3,21.9,6.6c16.3,6.7,20.2,12.4,36.5,17.9c7.4,2.5,13.6,4.6,22.3,4.6
	c12.1,0,21.4-4.1,30.8-8.3c13.9-6.2,13.1-8.9,24-12.9c5.3-1.9,16.9-6,30.6-4.2c9.2,1.2,12.1,4.1,32.4,12.9
	c9.6,4.2,17.6,7.2,22.9,9.2c0.1,7.1,0.2,14.3,0.4,21.4c-3.7-0.6-9.1-1.8-15.5-3.9c-9.5-3.2-12.8-5.8-22.1-9.8
	c-9.8-4.2-16.2-6.9-24.7-7.7c-12.8-1.3-23.1,2.3-29.3,4.6c-13,4.7-12.2,8.2-25.8,13.8c-7.3,3-18.5,7.7-32.5,6.6
	c-11.6-0.9-20.4-5.5-27.1-9c-12.8-6.7-16.5-12.4-29.1-16.4c-6.3-2-11.8-2.6-15.3-2.8C83.1,130,83,122.4,82.9,114.9z"/>
<path class="st4" d="M241.9,152.8c-6.2,1.3-13.7,3.3-21.9,6.6c-16.3,6.7-20.2,12.4-36.5,17.9c-7.4,2.5-13.6,4.6-22.3,4.6
	c-12.1,0-21.4-4.1-30.8-8.3c-13.9-6.2-13.1-8.9-24-12.9c-5.3-1.9-16.9-6-30.6-4.2c-9.2,1.2-12.1,4.1-32.4,12.9
	c-9.6,4.2-17.6,7.2-22.9,9.2c-0.1,7.1-0.2,14.3-0.4,21.4c3.7-0.6,9.1-1.8,15.5-3.9c9.5-3.2,12.8-5.8,22.1-9.8
	c9.8-4.2,16.2-6.9,24.7-7.7c12.8-1.3,23.1,2.3,29.3,4.6c13,4.7,12.2,8.2,25.8,13.8c7.3,3,18.5,7.7,32.5,6.6
	c11.6-0.9,20.4-5.5,27.1-9c12.8-6.7,16.5-12.4,29.1-16.4c6.3-2,11.8-2.6,15.3-2.8C241.7,167.9,241.8,160.4,241.9,152.8z"/>
<path class="st4" d="M241.9,192.8c-6.2,1.3-13.7,3.3-21.9,6.6c-16.3,6.7-20.2,12.4-36.5,17.9c-7.4,2.5-13.6,4.6-22.3,4.6
	c-12.1,0-21.4-4.1-30.8-8.3c-13.9-6.2-13.1-8.9-24-12.9c-5.3-1.9-16.9-6-30.6-4.2c-9.2,1.2-12.1,4.1-32.4,12.9
	c-9.6,4.2-17.6,7.2-22.9,9.2c-0.1,7.1-0.2,14.3-0.4,21.4c3.7-0.6,9.1-1.8,15.5-3.9c9.5-3.2,12.8-5.8,22.1-9.8
	c9.8-4.2,16.2-6.9,24.7-7.7c12.8-1.3,23.1,2.3,29.3,4.6c13,4.7,12.2,8.2,25.8,13.8c7.3,3,18.5,7.7,32.5,6.6
	c11.6-0.9,20.4-5.5,27.1-9c12.8-6.7,16.5-12.4,29.1-16.4c6.3-2,11.8-2.6,15.3-2.8C241.7,207.9,241.8,200.3,241.9,192.8z"/>
<path class="st5" d="M82.9,271.2c6.2,1.3,13.7,3.3,21.9,6.6c16.3,6.7,20.2,12.4,36.5,17.9c7.4,2.5,13.6,4.6,22.3,4.6
	c12.1,0,21.4-4.1,30.8-8.3c13.9-6.2,13.1-8.9,24-12.9c5.3-1.9,16.9-6,30.6-4.2c9.2,1.2,12.1,4.1,32.4,12.9
	c9.6,4.2,17.6,7.2,22.9,9.2c0.1,7.1,0.2,14.3,0.4,21.4c-3.7-0.6-9.1-1.8-15.5-3.9c-9.5-3.2-12.8-5.8-22.1-9.8
	c-9.8-4.2-16.2-6.9-24.7-7.7c-12.8-1.3-23.1,2.3-29.3,4.6c-13,4.7-12.2,8.2-25.8,13.8c-7.3,3-18.5,7.7-32.5,6.6
	c-11.6-0.9-20.4-5.5-27.1-9c-12.8-6.7-16.5-12.4-29.1-16.4c-6.3-2-11.8-2.6-15.3-2.8C83.1,286.3,83,278.7,82.9,271.2z"/>
<path class="st5" d="M82.9,231.2c6.2,1.3,13.7,3.3,21.9,6.6c16.3,6.7,20.2,12.4,36.5,17.9c7.4,2.5,13.6,4.6,22.3,4.6
	c12.1,0,21.4-4.1,30.8-8.3c13.9-6.2,13.1-8.9,24-12.9c5.3-1.9,16.9-6,30.6-4.2c9.2,1.2,12.1,4.1,32.4,12.9
	c9.6,4.2,17.6,7.2,22.9,9.2c0.1,7.1,0.2,14.3,0.4,21.4c-3.7-0.6-9.1-1.8-15.5-3.9c-9.5-3.2-12.8-5.8-22.1-9.8
	c-9.8-4.2-16.2-6.9-24.7-7.7c-12.8-1.3-23.1,2.3-29.3,4.6c-13,4.7-12.2,8.2-25.8,13.8c-7.3,3-18.5,7.7-32.5,6.6
	c-11.6-0.9-20.4-5.5-27.1-9c-12.8-6.7-16.5-12.4-29.1-16.4c-6.3-2-11.8-2.6-15.3-2.8C83.1,246.3,83,238.8,82.9,231.2z"/>
</svg>
