<?xml version="1.0" encoding="UTF-8" standalone="no"?>
<!DOCTYPE svg PUBLIC "-//W3C//DTD SVG 1.1//EN" "http://www.w3.org/Graphics/SVG/1.1/DTD/svg11.dtd">
<svg width="149" height="60" viewBox="0 0 149 60" version="1.1" xmlns="http://www.w3.org/2000/svg" xmlns:xlink="http://www.w3.org/1999/xlink" xml:space="preserve" xmlns:serif="http://www.serif.com/" style="fill-rule:evenodd;clip-rule:evenodd;stroke-linejoin:round;stroke-miterlimit:2;">
    <g transform="matrix(1,0,0,1,-1250,0)">
        <g id="Artboard2" transform="matrix(0.124167,0,0,0.0666667,1094.79,0)">
            <rect x="1250" y="0" width="1200" height="900" style="fill:none;"/>
            <g transform="matrix(2.84248,0,0,5.29412,-12962.4,-5452.94)">
                <path d="M5029.99,1200C5013.44,1200 5000,1186.56 5000,1170.01L5000,1059.99C5000,1043.44 5013.44,1030 5029.99,1030L5390,1030C5406.55,1030 5419.99,1043.44 5419.99,1059.99L5419.99,1170.01C5419.99,1186.56 5406.55,1200 5390,1200L5029.99,1200Z"/>
            </g>
            <g transform="matrix(2.84248,0,0,5.29412,-15196.6,31.6906)">
                <path d="M6176,0C6189.25,0 6200,10.754 6200,24C6200,24.313 6199.99,24.624 6199.98,24.934L6199.98,133.094C6199.99,133.404 6200,133.715 6200,134.027C6200,147.273 6189.25,158.027 6176,158.027C6175.62,158.027 6175.24,158.018 6174.86,158.001L5817.12,158.001C5816.74,158.018 5816.36,158.027 5815.98,158.027C5802.74,158.027 5791.98,147.273 5791.98,134.027L5791.98,24C5791.98,10.754 5802.74,0 5815.98,0L6176,0Z" style="fill:white;"/>
            </g>
            <g transform="matrix(2.84248,0,0,5.29412,-10489.4,-2700)">
                <path d="M4230,620L4460,620L4460,578L4450,562L4470,562L4470,558L4483,558L4490,530L4514,530L4507,558L4520,558L4519,562L4524,562L4520,578L4520,620L4530,620L4530,639.999C4530,651.037 4521.04,659.999 4510,659.999L4510,660L4180,660C4174.48,660 4170,655.519 4170,650C4170,644.486 4174.47,640.008 4179.99,640L4150,610.001L4220,610L4230,620Z" style="fill:rgb(33,56,130);"/>
            </g>
            <g transform="matrix(0.939164,0,0,0.943687,1269.23,857.017)">
                <path d="M212.43,-246.172L196.553,-246.172L196.553,-111.534L206.515,-111.534L206.515,-206.742L215.024,-111.534L225.816,-111.534L233.702,-208.089L233.702,-111.534L244.494,-111.534L244.494,-246.172L228.617,-246.172L220.835,-150.579L212.43,-246.172Z" style="fill:white;fill-rule:nonzero;"/>
            </g>
            <g transform="matrix(0.939164,0,0,0.943687,1269.23,857.017)">
                <path d="M288.491,-246.172L271.785,-246.172L260.163,-111.534L270.643,-111.534L272.615,-135.961L286.623,-135.961L288.595,-111.534L300.113,-111.534L288.491,-246.172ZM279.567,-222.322L285.067,-154.233L274.067,-154.233L279.567,-222.322Z" style="fill:white;fill-rule:nonzero;"/>
            </g>
            <g transform="matrix(0.939164,0,0,0.943687,1269.23,857.017)">
                <path d="M351.27,-111.534C350.129,-116.535 350.025,-121.343 350.025,-127.883L350.025,-148.656C350.025,-162.696 348.157,-172.89 342.45,-177.314C347.535,-181.738 349.921,-190.778 349.921,-204.626L349.921,-215.205C349.921,-235.978 344.837,-246.172 333.007,-246.172L315.782,-246.172L315.782,-111.534L327.196,-111.534L327.196,-166.351L331.139,-166.351C336.328,-166.351 338.611,-161.735 338.611,-149.233L338.611,-128.075C338.611,-117.112 339.026,-114.996 339.648,-111.534L351.27,-111.534ZM332.696,-226.938C336.743,-226.938 338.507,-222.706 338.507,-213.089L338.507,-199.818C338.507,-189.047 335.913,-185.585 331.658,-185.585L327.196,-185.585L327.196,-226.938L332.696,-226.938Z" style="fill:white;fill-rule:nonzero;"/>
            </g>
            <g transform="matrix(0.939164,0,0,0.943687,1269.23,857.017)">
                <rect x="367.873" y="-246.172" width="11.414" height="134.638" style="fill:white;"/>
            </g>
            <g transform="matrix(0.939164,0,0,0.943687,1269.23,857.017)">
                <path d="M422.351,-111.534L434.077,-111.534L434.077,-246.172L423.907,-246.172L423.907,-165.581L412.182,-246.172L397.862,-246.172L397.862,-111.534L408.135,-111.534L408.135,-209.05L422.351,-111.534Z" style="fill:white;fill-rule:nonzero;"/>
            </g>
            <g transform="matrix(0.939164,0,0,0.943687,1269.23,857.017)">
                <path d="M464.065,-226.938L483.781,-226.938L483.781,-246.172L452.651,-246.172L452.651,-111.534L483.781,-111.534L483.781,-130.768L464.065,-130.768L464.065,-170.198L479.734,-170.198L479.734,-189.432L464.065,-189.432L464.065,-226.938Z" style="fill:white;fill-rule:nonzero;"/>
            </g>
            <g transform="matrix(0.939164,0,0,0.943687,1269.23,857.017)">
                <path d="M539.089,-226.938L558.805,-226.938L558.805,-246.172L527.675,-246.172L527.675,-111.534L558.805,-111.534L558.805,-130.768L539.089,-130.768L539.089,-170.198L554.758,-170.198L554.758,-189.432L539.089,-189.432L539.089,-226.938Z" style="fill:white;fill-rule:nonzero;"/>
            </g>
            <g transform="matrix(0.939164,0,0,0.943687,1269.23,857.017)">
                <path d="M600.623,-111.534L612.349,-111.534L612.349,-246.172L602.179,-246.172L602.179,-165.581L590.454,-246.172L576.134,-246.172L576.134,-111.534L586.407,-111.534L586.407,-209.05L600.623,-111.534Z" style="fill:white;fill-rule:nonzero;"/>
            </g>
            <g transform="matrix(0.939164,0,0,0.943687,1269.23,857.017)">
                <path d="M648.045,-167.313L653.233,-167.313L653.233,-142.501C653.233,-132.884 650.95,-129.422 647.318,-129.422C643.686,-129.422 641.403,-132.884 641.403,-142.501L641.403,-215.205C641.403,-224.822 643.686,-228.477 647.318,-228.477C650.95,-228.477 653.233,-224.822 653.233,-215.205L653.233,-200.78L664.025,-200.78L664.025,-213.859C664.025,-235.401 658.214,-247.711 647.007,-247.711C635.8,-247.711 629.989,-235.401 629.989,-213.859L629.989,-143.847C629.989,-122.305 635.8,-109.995 647.007,-109.995C658.214,-109.995 664.025,-122.305 664.025,-143.847L664.025,-186.546L648.045,-186.546L648.045,-167.313Z" style="fill:white;fill-rule:nonzero;"/>
            </g>
            <g transform="matrix(0.939164,0,0,0.943687,1269.23,857.017)">
                <rect x="681.769" y="-246.172" width="11.414" height="134.638" style="fill:white;"/>
            </g>
            <g transform="matrix(0.939164,0,0,0.943687,1269.23,857.017)">
                <path d="M736.247,-111.534L747.972,-111.534L747.972,-246.172L737.803,-246.172L737.803,-165.581L726.077,-246.172L711.758,-246.172L711.758,-111.534L722.031,-111.534L722.031,-209.05L736.247,-111.534Z" style="fill:white;fill-rule:nonzero;"/>
            </g>
            <g transform="matrix(0.939164,0,0,0.943687,1269.23,857.017)">
                <path d="M777.961,-226.938L797.677,-226.938L797.677,-246.172L766.547,-246.172L766.547,-111.534L797.677,-111.534L797.677,-130.768L777.961,-130.768L777.961,-170.198L793.63,-170.198L793.63,-189.432L777.961,-189.432L777.961,-226.938Z" style="fill:white;fill-rule:nonzero;"/>
            </g>
            <g transform="matrix(0.939164,0,0,0.943687,1269.23,857.017)">
                <path d="M826.524,-226.938L846.24,-226.938L846.24,-246.172L815.11,-246.172L815.11,-111.534L846.24,-111.534L846.24,-130.768L826.524,-130.768L826.524,-170.198L842.193,-170.198L842.193,-189.432L826.524,-189.432L826.524,-226.938Z" style="fill:white;fill-rule:nonzero;"/>
            </g>
            <g transform="matrix(0.939164,0,0,0.943687,1269.23,857.017)">
                <path d="M899.161,-111.534C898.02,-116.535 897.916,-121.343 897.916,-127.883L897.916,-148.656C897.916,-162.696 896.048,-172.89 890.341,-177.314C895.426,-181.738 897.812,-190.778 897.812,-204.626L897.812,-215.205C897.812,-235.978 892.728,-246.172 880.898,-246.172L863.673,-246.172L863.673,-111.534L875.087,-111.534L875.087,-166.351L879.03,-166.351C884.219,-166.351 886.502,-161.735 886.502,-149.233L886.502,-128.075C886.502,-117.112 886.917,-114.996 887.539,-111.534L899.161,-111.534ZM880.587,-226.938C884.634,-226.938 886.398,-222.706 886.398,-213.089L886.398,-199.818C886.398,-189.047 883.804,-185.585 879.549,-185.585L875.087,-185.585L875.087,-226.938L880.587,-226.938Z" style="fill:white;fill-rule:nonzero;"/>
            </g>
            <g transform="matrix(0.939164,0,0,0.943687,1269.23,857.017)">
                <rect x="915.764" y="-246.172" width="11.414" height="134.638" style="fill:white;"/>
            </g>
            <g transform="matrix(0.939164,0,0,0.943687,1269.23,857.017)">
                <path d="M970.242,-111.534L981.967,-111.534L981.967,-246.172L971.798,-246.172L971.798,-165.581L960.073,-246.172L945.753,-246.172L945.753,-111.534L956.026,-111.534L956.026,-209.05L970.242,-111.534Z" style="fill:white;fill-rule:nonzero;"/>
            </g>
            <g transform="matrix(0.939164,0,0,0.943687,1269.23,857.017)">
                <path d="M1017.66,-167.313L1022.85,-167.313L1022.85,-142.501C1022.85,-132.884 1020.57,-129.422 1016.94,-129.422C1013.31,-129.422 1011.02,-132.884 1011.02,-142.501L1011.02,-215.205C1011.02,-224.822 1013.31,-228.477 1016.94,-228.477C1020.57,-228.477 1022.85,-224.822 1022.85,-215.205L1022.85,-200.78L1033.64,-200.78L1033.64,-213.859C1033.64,-235.401 1027.83,-247.711 1016.63,-247.711C1005.42,-247.711 999.608,-235.401 999.608,-213.859L999.608,-143.847C999.608,-122.305 1005.42,-109.995 1016.63,-109.995C1027.83,-109.995 1033.64,-122.305 1033.64,-143.847L1033.64,-186.546L1017.66,-186.546L1017.66,-167.313Z" style="fill:white;fill-rule:nonzero;"/>
            </g>
            <g transform="matrix(1.14703,0,0,0.768669,-11889.1,-93.9706)">
                <path d="M11779.1,810.992C11839.5,810.992 11877.8,707.681 11877.8,535.496C11877.8,363.311 11839.5,260.001 11778.3,260.001L11702.8,260.001L11702.8,810.992L11779.1,810.992ZM11756.6,684.006L11756.6,386.987L11775.6,386.987C11806.5,386.987 11823.6,420.348 11823.6,535.496C11823.6,650.645 11806.5,684.006 11777.1,684.006L11756.6,684.006Z" style="fill-rule:nonzero;"/>
            </g>
            <g transform="matrix(1.14703,0,0,0.768669,-11882.5,-93.9706)">
                <path d="M11902.6,810.992L12045.1,810.992L12045.1,690.462L11956.4,690.462L11956.4,595.761L12038.1,595.761L12038.1,475.231L11956.4,475.231L11956.4,380.53L12045.5,380.53L12045.5,260.001L11902.6,260.001L11902.6,810.992Z" style="fill-rule:nonzero;"/>
            </g>
            <g transform="matrix(1.14703,0,0,0.768669,-11872.3,-93.5576)">
                <path d="M12179,432.185L12230.5,432.185C12230.3,324.032 12200.3,252.467 12152.3,252.467C12105.2,252.467 12071.9,322.956 12072.2,427.881C12072.1,513.973 12093.6,561.862 12128.7,582.847L12148.5,594.685C12170.5,608.137 12178.1,623.472 12178.3,648.492C12178.1,675.665 12169.2,694.767 12151.9,694.767C12131.3,694.767 12119.1,667.863 12118.3,617.284L12067.1,617.284C12067.3,755.57 12101,817.449 12152.7,817.449C12203,817.449 12233.1,757.184 12233.3,648.492C12233.1,564.552 12215.1,505.633 12171.3,479.536L12155,469.851C12136.3,458.82 12127.8,443.485 12128.3,417.119C12128.4,392.906 12135.7,375.149 12152.3,375.149C12169.8,375.149 12178,396.403 12179,432.185Z" style="fill-rule:nonzero;"/>
            </g>
            <g transform="matrix(2.84248,0,0,5.29412,-6140.3,-2011.76)">
                <path d="M2649.95,414L2658.95,414L2655.42,432.5L2664.9,430L2650.95,456.001L2654.47,437.5L2644.99,440L2649.95,414Z" style="fill:rgb(33,56,130);"/>
            </g>
            <g transform="matrix(2.84248,0,0,5.29412,340.407,-952.941)">
                <path d="M383,210.256C384.329,210.686 385.612,211.221 386.837,211.849L394.092,204.595L405.406,215.908L398.151,223.163C398.78,224.389 399.314,225.671 399.744,227L410,227L410,243L399.744,243C399.314,244.329 398.78,245.612 398.151,246.838L405.406,254.092L394.092,265.406L386.837,258.151C385.611,258.78 384.329,259.314 383,259.744L383,270L367,270L367,259.744C365.671,259.314 364.388,258.78 363.163,258.151L355.908,265.406L344.594,254.092L351.849,246.838C351.22,245.612 350.686,244.329 350.256,243L340,243L340,227L350.256,227C350.686,225.671 351.22,224.389 351.849,223.163L344.594,215.908L355.908,204.595L363.163,211.849C364.389,211.22 365.671,210.686 367,210.256L367,200L383,200L383,210.256ZM375,216C385.486,216 394,224.514 394,235C394,245.487 385.486,254 375,254C364.514,254 356,245.487 356,235C356,224.514 364.514,216 375,216Z"/>
            </g>
        </g>
    </g>
</svg>
