<?xml version="1.0" encoding="utf-8"?>
<!-- Generator: Adobe Illustrator 27.7.0, SVG Export Plug-In . SVG Version: 6.00 Build 0)  -->
<svg version="1.1" id="Warstwa_1" xmlns="http://www.w3.org/2000/svg" xmlns:xlink="http://www.w3.org/1999/xlink" x="0px" y="0px"
	 viewBox="0 0 300 225" style="enable-background:new 0 0 300 225;" xml:space="preserve">
<style type="text/css">
	.st0{fill:#020203;}
</style>
<path class="st0" d="M276.9-0.3H23.1C10.3-0.3,0,8.9,0,20.2v184.5c0,11.3,10.3,20.5,23.1,20.5h253.8c12.7,0,23.1-9.2,23.1-20.5V20.2
	C300,8.9,289.7-0.3,276.9-0.3z M276.9,20.2v131.7l-37.6-33.4c-9-8-23.6-8-32.6,0c0,0,0,0,0,0l-28.8,25.6l-63.5-56.4
	c-9-8-23.6-8-32.6,0l-58.7,52.1V20.2H276.9z M23.1,168.9l75-66.6l115.4,102.5H23.1V168.9z M276.9,204.8h-30.8l-51.9-46.1L223,133
	l53.9,47.9V204.8z M173.1,76.6c0-8.5,7.7-15.4,17.3-15.4s17.3,6.9,17.3,15.4S199.9,92,190.4,92S173.1,85.1,173.1,76.6z"/>
</svg>
